ffmpeg started on 2022-05-10 at 02:36:43
Report written to "ffmpeg-20220510-023643.log"
ffmpeg version 4.2.6 Copyright (c) 2000-2022 the FFmpeg developers
  built with gcc 8 (GCC)
  configuration: --prefix=/usr --bindir=/usr/bin --datadir=/usr/share/ffmpeg --docdir=/usr/share/doc/ffmpeg --incdir=/usr/include/ffmpeg --libdir=/usr/lib64 --mandir=/usr/share/man --arch=x86_64 --optflags='-O2 -g -pipe -Wall -Werror=format-security -Wp,-D_FORTIFY_SOURCE=2 -Wp,-D_GLIBCXX_ASSERTIONS -fexceptions -fstack-protector-strong -grecord-gcc-switches -specs=/usr/lib/rpm/redhat/redhat-hardened-cc1 -specs=/usr/lib/rpm/redhat/redhat-annobin-cc1 -m64 -mtune=generic -fasynchronous-unwind-tables -fstack-clash-protection -fcf-protection' --extra-ldflags='-Wl,-z,relro -Wl,-z,now -specs=/usr/lib/rpm/redhat/redhat-hardened-ld ' --extra-cflags=' ' --enable-libopencore-amrnb --enable-libopencore-amrwb --enable-libvo-amrwbenc --enable-version3 --enable-bzlib --disable-crystalhd --enable-fontconfig --enable-frei0r --enable-gcrypt --enable-gnutls --enable-ladspa --enable-libaom --enable-libdav1d --enable-libass --enable-libbluray --enable-libcdio --enable-libdrm --enable-libjack --enable-libfreetype --enable-libfribidi --enable-libgsm --enable-libmp3lame --enable-nvenc --enable-openal --enable-opencl --enable-opengl --enable-libopenjpeg --enable-libopus --enable-libpulse --enable-librsvg --enable-libsrt --enable-libsoxr --enable-libspeex --enable-libssh --enable-libtheora --enable-libvorbis --enable-libv4l2 --enable-libvidstab --enable-libvmaf --enable-version3 --enable-vapoursynth --enable-libvpx --enable-libx264 --enable-libx265 --enable-libxvid --enable-libzimg --enable-libzvbi --enable-avfilter --enable-avresample --enable-libmodplug --enable-postproc --enable-pthreads --disable-static --enable-shared --enable-gpl --disable-debug --disable-stripping --shlibdir=/usr/lib64 --enable-libmfx --enable-runtime-cpudetect
  libavutil      56. 31.100 / 56. 31.100
  libavcodec     58. 54.100 / 58. 54.100
  libavformat    58. 29.100 / 58. 29.100
  libavdevice    58.  8.100 / 58.  8.100
  libavfilter     7. 57.100 /  7. 57.100
  libavresample   4.  0.  0 /  4.  0.  0
  libswscale      5.  5.100 /  5.  5.100
  libswresample   3.  5.100 /  3.  5.100
  libpostproc    55.  5.100 / 55.  5.100
Input #0, matroska,webm, from 'uhd1.webm':
  Metadata:
    encoder         : google/video-file
  Duration: 00:05:13.78, start: 0.000000, bitrate: 25462 kb/s
    Stream #0:0(eng): Video: vp9 (Profile 0), yuv420p(tv, bt709), 3840x2160, SAR 1:1 DAR 16:9, 59.94 fps, 59.94 tbr, 1k tbn, 1k tbc (default)
    Side data:
      Content Light Level Metadata, MaxCLL=1100, MaxFALL=180
Stream mapping:
  Stream #0:0 -> #0:0 (vp9 (native) -> h264 (libx264))
Press [q] to stop, [?] for help
[libx264 @ 0x55abc09d62c0] Application has requested 32 threads. Using a thread count greater than 16 is not recommended.
[libx264 @ 0x55abc09d62c0] using SAR=1/1
[libx264 @ 0x55abc09d62c0] using cpu capabilities: MMX2 SSE2Fast SSSE3 SSE4.2 AVX FMA3 BMI2 AVX2 AVX512
[libx264 @ 0x55abc09d62c0] profile Constrained Baseline, level 5.2, 4:2:0, 8-bit
[libx264 @ 0x55abc09d62c0] 264 - core 157 r2980 34c06d1 - H.264/MPEG-4 AVC codec - Copyleft 2003-2019 - http://www.videolan.org/x264.html - options: cabac=0 ref=1 deblock=0:0:0 analyse=0:0 me=dia subme=0 psy=0 mixed_ref=0 me_range=16 chroma_me=1 trellis=0 8x8dct=0 cqm=0 deadzone=21,11 fast_pskip=1 chroma_qp_offset=0 threads=32 lookahead_threads=5 sliced_threads=0 nr=0 decimate=1 interlaced=0 bluray_compat=0 constrained_intra=0 bframes=0 weightp=0 keyint=120 keyint_min=12 scenecut=0 intra_refresh=0 rc_lookahead=0 rc=abr mbtree=0 bitrate=100000 ratetol=1.0 qcomp=0.60 qpmin=0 qpmax=69 qpstep=4 vbv_maxrate=200000 vbv_bufsize=200000 nal_hrd=none filler=0 ip_ratio=1.40 aq=0
Output #0, mp4, to 'uhd5.mp4':
  Metadata:
    encoder         : Lavf58.29.100
    Stream #0:0(eng): Video: h264 (libx264) (avc1 / 0x31637661), yuv420p, 3840x2160 [SAR 1:1 DAR 16:9], q=-1--1, 100000 kb/s, 59.94 fps, 19001 tbn, 59.94 tbc (default)
    Metadata:
      encoder         : Lavc58.54.100 libx264
    Side data:
      cpb: bitrate max/min/avg: 200000000/0/100000000 buffer size: 200000000 vbv_delay: -1
      Content Light Level Metadata, MaxCLL=1100, MaxFALL=180
frame=   25 fps=0.0 q=0.0 size=       0kB time=00:00:00.00 bitrate=N/A speed=   0x    frame=   64 fps= 62 q=16.0 size=    6400kB time=00:00:00.50 bitrate=104742.5kbits/s speed=0.484x    frame=  104 fps= 68 q=16.0 size=   14336kB time=00:00:01.16 bitrate=100558.5kbits/s speed=0.76x    frame=  145 fps= 70 q=17.0 size=   22784kB time=00:00:01.85 bitrate=100786.5kbits/s speed= 0.9x    frame=  185 fps= 72 q=18.0 size=   32256kB time=00:00:02.51 bitrate=104889.6kbits/s speed=0.981x    frame=  220 fps= 72 q=18.0 size=   40192kB time=00:00:03.10 bitrate=106102.8kbits/s speed=1.01x    frame=  258 fps= 72 q=19.0 size=   48384kB time=00:00:03.73 bitrate=106060.9kbits/s speed=1.04x    frame=  298 fps= 73 q=18.0 size=   56832kB time=00:00:04.40 bitrate=105704.0kbits/s speed=1.07x    frame=  341 fps= 74 q=18.0 size=   65536kB time=00:00:05.12 bitrate=104820.1kbits/s speed=1.11x    frame=  377 fps= 74 q=18.0 size=   72448kB time=00:00:05.72 bitrate=103713.6kbits/s speed=1.12x    frame=  413 fps= 73 q=19.0 size=   79616kB time=00:00:06.32 bitrate=103149.0kbits/s speed=1.12x    frame=  467 fps= 76 q=15.0 size=   87552kB time=00:00:07.22 bitrate=99284.7kbits/s speed=1.18x    frame=  504 fps= 76 q=14.0 size=   91136kB time=00:00:07.84 bitrate=95213.1kbits/s speed=1.18x    frame=  557 fps= 78 q=13.0 size=   97536kB time=00:00:08.72 bitrate=91573.1kbits/s speed=1.22x    frame=  602 fps= 79 q=12.0 size=  104192kB time=00:00:09.47 bitrate=90072.2kbits/s speed=1.24x    frame=  636 fps= 78 q=11.0 size=  110336kB time=00:00:10.04 bitrate=89996.5kbits/s speed=1.23x    frame=  681 fps= 79 q=12.0 size=  118016kB time=00:00:10.79 bitrate=89565.7kbits/s speed=1.25x    frame=  724 fps= 79 q=15.0 size=  126208kB time=00:00:11.51 bitrate=89813.8kbits/s speed=1.26x    frame=  769 fps= 80 q=17.0 size=  134656kB time=00:00:12.26 bitrate=89958.8kbits/s speed=1.27x    frame=  799 fps= 79 q=18.0 size=  146176kB time=00:00:12.76 bitrate=93825.3kbits/s speed=1.25x    frame=  835 fps= 78 q=17.0 size=  157696kB time=00:00:13.36 bitrate=96670.4kbits/s speed=1.25x    frame=  864 fps= 77 q=18.0 size=  165632kB time=00:00:13.84 bitrate=97987.7kbits/s speed=1.24x    frame=  900 fps= 77 q=18.0 size=  175104kB time=00:00:14.44 bitrate=99285.0kbits/s speed=1.24x    frame=  937 fps= 77 q=18.0 size=  184576kB time=00:00:15.06 bitrate=100367.5kbits/s speed=1.23x    frame=  973 fps= 77 q=18.0 size=  193792kB time=00:00:15.66 bitrate=101338.9kbits/s speed=1.23x    frame= 1009 fps= 76 q=19.0 size=  203520kB time=00:00:16.26 bitrate=102496.3kbits/s speed=1.23x    frame= 1049 fps= 77 q=18.0 size=  214016kB time=00:00:16.93 bitrate=103534.7kbits/s speed=1.24x    frame= 1090 fps= 77 q=18.0 size=  223232kB time=00:00:17.61 bitrate=103800.3kbits/s speed=1.24x    frame= 1121 fps= 76 q=18.0 size=  228864kB time=00:00:18.13 bitrate=103384.1kbits/s speed=1.23x    frame= 1160 fps= 76 q=20.0 size=  237056kB time=00:00:18.78 bitrate=103375.7kbits/s speed=1.23x    frame= 1193 fps= 76 q=20.0 size=  246272kB time=00:00:19.33 bitrate=104336.8kbits/s speed=1.23x    frame= 1229 fps= 76 q=21.0 size=  257792kB time=00:00:19.93 bitrate=105927.2kbits/s speed=1.23x    frame= 1267 fps= 76 q=21.0 size=  269824kB time=00:00:20.57 bitrate=107454.2kbits/s speed=1.23x    frame= 1309 fps= 76 q=21.0 size=  282112kB time=00:00:21.27 bitrate=108646.9kbits/s speed=1.23x    frame= 1339 fps= 75 q=22.0 size=  290560kB time=00:00:21.77 bitrate=109328.0kbits/s speed=1.22x    frame= 1370 fps= 75 q=22.0 size=  299008kB time=00:00:22.28 bitrate=109896.2kbits/s speed=1.22x    frame= 1410 fps= 75 q=22.0 size=  309504kB time=00:00:22.95 bitrate=110447.0kbits/s speed=1.22x    frame= 1452 fps= 75 q=23.0 size=  321024kB time=00:00:23.65 bitrate=111164.9kbits/s speed=1.22x    frame= 1481 fps= 75 q=23.0 size=  329472kB time=00:00:24.14 bitrate=111803.7kbits/s speed=1.22x    frame= 1512 fps= 74 q=23.0 size=  337408kB time=00:00:24.65 bitrate=112095.3kbits/s speed=1.21x    frame= 1552 fps= 74 q=23.0 size=  347136kB time=00:00:25.32 bitrate=112288.2kbits/s speed=1.21x    frame= 1583 fps= 74 q=23.0 size=  355072kB time=00:00:25.84 bitrate=112556.7kbits/s speed=1.21x    frame= 1618 fps= 74 q=23.0 size=  364032kB time=00:00:26.42 bitrate=112847.2kbits/s speed=1.21x    frame= 1658 fps= 74 q=19.0 size=  372480kB time=00:00:27.09 bitrate=112622.0kbits/s speed=1.21x    frame= 1698 fps= 74 q=19.0 size=  377856kB time=00:00:27.76 bitrate=111501.2kbits/s speed=1.21x    frame= 1744 fps= 75 q=19.0 size=  382208kB time=00:00:28.52 bitrate=109751.4kbits/s speed=1.22x    frame= 1789 fps= 75 q=17.0 size=  385792kB time=00:00:29.27 bitrate=107940.0kbits/s speed=1.23x    frame= 1830 fps= 75 q=18.0 size=  388864kB time=00:00:29.96 bitrate=106315.8kbits/s speed=1.23x    frame= 1873 fps= 75 q=17.0 size=  393984kB time=00:00:30.68 bitrate=105197.0kbits/s speed=1.23x    frame= 1925 fps= 76 q=21.0 size=  398592kB time=00:00:31.54 bitrate=103500.8kbits/s speed=1.24x    frame= 1957 fps= 75 q=17.0 size=  403200kB time=00:00:32.08 bitrate=102955.1kbits/s speed=1.24x    frame= 2001 fps= 76 q=17.0 size=  407808kB time=00:00:32.81 bitrate=101802.4kbits/s speed=1.24x    frame= 2042 fps= 76 q=19.0 size=  412672kB time=00:00:33.50 bitrate=100913.2kbits/s speed=1.24x    frame= 2080 fps= 76 q=18.0 size=  418816kB time=00:00:34.13 bitrate=100513.4kbits/s speed=1.24x    frame= 2117 fps= 76 q=18.0 size=  424960kB time=00:00:34.75 bitrate=100176.4kbits/s speed=1.24x    frame= 2155 fps= 76 q=18.0 size=  431104kB time=00:00:35.38 bitrate=99804.0kbits/s speed=1.24x    frame= 2184 fps= 75 q=18.0 size=  436480kB time=00:00:35.86 bitrate=99685.6kbits/s speed=1.24x    frame= 2219 fps= 75 q=18.0 size=  443136kB time=00:00:36.45 bitrate=99584.6kbits/s speed=1.24x    frame= 2255 fps= 75 q=18.0 size=  449280kB time=00:00:37.05 bitrate=99328.8kbits/s speed=1.23x    frame= 2287 fps= 75 q=19.0 size=  454912kB time=00:00:37.58 bitrate=99145.4kbits/s speed=1.23x    frame= 2324 fps= 75 q=18.0 size=  463104kB time=00:00:38.20 bitrate=99300.1kbits/s speed=1.23x    frame= 2364 fps= 75 q=18.0 size=  470016kB time=00:00:38.87 bitrate=99052.0kbits/s speed=1.23x    frame= 2406 fps= 75 q=20.0 size=  477440kB time=00:00:39.57 bitrate=98835.0kbits/s speed=1.23x    frame= 2431 fps= 75 q=19.0 size=  482560kB time=00:00:39.99 bitrate=98853.0kbits/s speed=1.23x    frame= 2472 fps= 75 q=19.0 size=  492800kB time=00:00:40.67 bitrate=99253.0kbits/s speed=1.23x    frame= 2510 fps= 75 q=20.0 size=  503552kB time=00:00:41.30 bitrate=99862.0kbits/s speed=1.23x    frame= 2536 fps= 74 q=19.0 size=  510208kB time=00:00:41.74 bitrate=100130.5kbits/s speed=1.22x    frame= 2577 fps= 74 q=15.0 size=  519680kB time=00:00:42.42 bitrate=100345.1kbits/s speed=1.22x    frame= 2619 fps= 75 q=14.0 size=  521728kB time=00:00:43.12 bitrate=99103.8kbits/s speed=1.23x    frame= 2663 fps= 75 q=14.0 size=  524032kB time=00:00:43.86 bitrate=97875.5kbits/s speed=1.23x    frame= 2704 fps= 75 q=13.0 size=  526592kB time=00:00:44.54 bitrate=96843.3kbits/s speed=1.23x    frame= 2745 fps= 75 q=15.0 size=  529408kB time=00:00:45.22 bitrate=95888.7kbits/s speed=1.23x    frame= 2786 fps= 75 q=15.0 size=  536320kB time=00:00:45.91 bitrate=95693.5kbits/s speed=1.23x    frame= 2839 fps= 75 q=15.0 size=  548352kB time=00:00:46.79 bitrate=95991.6kbits/s speed=1.24x    frame= 2875 fps= 75 q=16.0 size=  556288kB time=00:00:47.39 bitrate=96146.9kbits/s speed=1.24x    frame= 2908 fps= 75 q=16.0 size=  563456kB time=00:00:47.94 bitrate=96267.6kbits/s speed=1.24x    frame= 2952 fps= 75 q=16.0 size=  573440kB time=00:00:48.68 bitrate=96496.0kbits/s speed=1.24x    frame= 2991 fps= 75 q=16.0 size=  582144kB time=00:00:49.33 bitrate=96668.7kbits/s speed=1.24x    frame= 3028 fps= 75 q=16.0 size=  589824kB time=00:00:49.94 bitrate=96733.6kbits/s speed=1.24x    frame= 3065 fps= 75 q=15.0 size=  597760kB time=00:00:50.56 bitrate=96838.4kbits/s speed=1.24x    frame= 3103 fps= 75 q=15.0 size=  605952kB time=00:00:51.20 bitrate=96950.1kbits/s speed=1.24x    frame= 3144 fps= 75 q=15.0 size=  614144kB time=00:00:51.88 bitrate=96965.3kbits/s speed=1.24x    frame= 3182 fps= 75 q=15.0 size=  621824kB time=00:00:52.51 bitrate=96992.8kbits/s speed=1.24x    frame= 3223 fps= 75 q=15.0 size=  628992kB time=00:00:53.20 bitrate=96849.5kbits/s speed=1.24x    frame= 3262 fps= 75 q=15.0 size=  636160kB time=00:00:53.85 bitrate=96769.7kbits/s speed=1.24x    frame= 3300 fps= 75 q=15.0 size=  643584kB time=00:00:54.48 bitrate=96760.0kbits/s speed=1.24x    frame= 3337 fps= 75 q=15.0 size=  650496kB time=00:00:55.10 bitrate=96703.6kbits/s speed=1.24x    frame= 3376 fps= 75 q=15.0 size=  657920kB time=00:00:55.75 bitrate=96665.9kbits/s speed=1.24x    frame= 3414 fps= 75 q=16.0 size=  665088kB time=00:00:56.38 bitrate=96620.5kbits/s speed=1.24x    frame= 3453 fps= 75 q=15.0 size=  672000kB time=00:00:57.04 bitrate=96511.0kbits/s speed=1.24x    frame= 3489 fps= 75 q=16.0 size=  677888kB time=00:00:57.64 bitrate=96342.2kbits/s speed=1.24x    frame= 3517 fps= 75 q=16.0 size=  683008kB time=00:00:58.10 bitrate=96289.5kbits/s speed=1.24x    frame= 3552 fps= 75 q=16.0 size=  689664kB time=00:00:58.69 bitrate=96260.6kbits/s speed=1.24x    frame= 3591 fps= 75 q=16.0 size=  696832kB time=00:00:59.34 bitrate=96194.7kbits/s speed=1.24x    frame= 3633 fps= 75 q=16.0 size=  704768kB time=00:01:00.04 bitrate=96154.8kbits/s speed=1.24x    frame= 3668 fps= 75 q=15.0 size=  711424kB time=00:01:00.62 bitrate=96128.1kbits/s speed=1.24x    frame= 3701 fps= 75 q=15.0 size=  717056kB time=00:01:01.17 bitrate=96017.2kbits/s speed=1.24x    frame= 3740 fps= 75 q=14.0 size=  723968kB time=00:01:01.82 bitrate=95922.6kbits/s speed=1.24x    frame= 3788 fps= 75 q=14.0 size=  731392kB time=00:01:02.62 bitrate=95667.1kbits/s speed=1.24x    frame= 3826 fps= 75 q=14.0 size=  736512kB time=00:01:03.26 bitrate=95371.4kbits/s speed=1.24x    frame= 3861 fps= 75 q=13.0 size=  741632kB time=00:01:03.84 bitrate=95156.1kbits/s speed=1.24x    frame= 3901 fps= 75 q=13.0 size=  748288kB time=00:01:04.51 bitrate=95017.0kbits/s speed=1.24x    frame= 3937 fps= 75 q=14.0 size=  753920kB time=00:01:05.11 bitrate=94849.2kbits/s speed=1.24x    frame= 3975 fps= 75 q=13.0 size=  760064kB time=00:01:05.74 bitrate=94700.1kbits/s speed=1.24x    frame= 4023 fps= 75 q=13.0 size=  768768kB time=00:01:06.54 bitrate=94632.0kbits/s speed=1.24x    frame= 4057 fps= 75 q=15.0 size=  774656kB time=00:01:07.11 bitrate=94550.9kbits/s speed=1.24x    frame= 4090 fps= 75 q=15.0 size=  784384kB time=00:01:07.66 bitrate=94959.3kbits/s speed=1.24x    frame= 4120 fps= 75 q=15.0 size=  793088kB time=00:01:08.16 bitrate=95308.1kbits/s speed=1.24x    frame= 4155 fps= 75 q=15.0 size=  802048kB time=00:01:08.75 bitrate=95566.3kbits/s speed=1.24x    frame= 4200 fps= 75 q=15.0 size=  813824kB time=00:01:09.50 bitrate=95922.0kbits/s speed=1.24x    frame= 4222 fps= 75 q=15.0 size=  819456kB time=00:01:09.86 bitrate=96078.4kbits/s speed=1.23x    frame= 4261 fps= 75 q=16.0 size=  829696kB time=00:01:10.52 bitrate=96381.5kbits/s speed=1.23x    frame= 4298 fps= 75 q=15.0 size=  838912kB time=00:01:11.13 bitrate=96606.4kbits/s speed=1.23x    frame= 4334 fps= 74 q=15.0 size=  847360kB time=00:01:11.73 bitrate=96762.3kbits/s speed=1.23x    frame= 4369 fps= 74 q=16.0 size=  856320kB time=00:01:12.32 bitrate=96996.0kbits/s speed=1.23x    frame= 4409 fps= 74 q=15.0 size=  865024kB time=00:01:12.98 bitrate=97086.1kbits/s speed=1.23x    frame= 4441 fps= 74 q=16.0 size=  872448kB time=00:01:13.52 bitrate=97208.3kbits/s speed=1.23x    frame= 4469 fps= 74 q=16.0 size=  878848kB time=00:01:13.99 bitrate=97303.2kbits/s speed=1.23x    frame= 4510 fps= 74 q=16.0 size=  890112kB time=00:01:14.67 bitrate=97647.6kbits/s speed=1.23x    frame= 4545 fps= 74 q=17.0 size=  899072kB time=00:01:15.25 bitrate=97865.2kbits/s speed=1.23x    frame= 4577 fps= 74 q=16.0 size=  907264kB time=00:01:15.79 bitrate=98061.3kbits/s speed=1.23x    frame= 4610 fps= 74 q=14.0 size=  916736kB time=00:01:16.34 bitrate=98370.6kbits/s speed=1.23x    frame= 4655 fps= 74 q=12.0 size=  925184kB time=00:01:17.09 bitrate=98310.3kbits/s speed=1.23x    frame= 4698 fps= 74 q=13.0 size=  929792kB time=00:01:17.81 bitrate=97889.1kbits/s speed=1.23x    frame= 4742 fps= 74 q=14.0 size=  935680kB time=00:01:18.54 bitrate=97588.3kbits/s speed=1.23x    frame= 4784 fps= 74 q=12.0 size=  940288kB time=00:01:19.24 bitrate=97201.8kbits/s speed=1.23x    frame= 4827 fps= 75 q=12.0 size=  946176kB time=00:01:19.96 bitrate=96932.9kbits/s speed=1.23x    frame= 4868 fps= 75 q=12.0 size=  952064kB time=00:01:20.64 bitrate=96708.9kbits/s speed=1.24x    frame= 4916 fps= 75 q=11.0 size=  958976kB time=00:01:21.44 bitrate=96453.2kbits/s speed=1.24x    frame= 4952 fps= 75 q=11.0 size=  965632kB time=00:01:22.04 bitrate=96411.8kbits/s speed=1.24x    frame= 4994 fps= 75 q=11.0 size=  974080kB time=00:01:22.74 bitrate=96431.7kbits/s speed=1.24x    frame= 5034 fps= 75 q=11.0 size=  980992kB time=00:01:23.41 bitrate=96339.0kbits/s speed=1.24x    frame= 5073 fps= 75 q=12.0 size=  987904kB time=00:01:24.06 bitrate=96267.0kbits/s speed=1.24x    frame= 5111 fps= 75 q=14.0 size=  995584kB time=00:01:24.70 bitrate=96289.2kbits/s speed=1.24x    frame= 5149 fps= 75 q=14.0 size= 1002240kB time=00:01:25.33 bitrate=96212.8kbits/s speed=1.24x    frame= 5185 fps= 75 q=14.0 size= 1007872kB time=00:01:25.93 bitrate=96077.3kbits/s speed=1.24x    frame= 5224 fps= 75 q=14.0 size= 1015296kB time=00:01:26.58 bitrate=96057.7kbits/s speed=1.24x    frame= 5262 fps= 75 q=15.0 size= 1023488kB time=00:01:27.22 bitrate=96128.9kbits/s speed=1.24x    frame= 5293 fps= 75 q=15.0 size= 1030912kB time=00:01:27.73 bitrate=96255.4kbits/s speed=1.24x    frame= 5321 fps= 75 q=15.0 size= 1038336kB time=00:01:28.20 bitrate=96435.2kbits/s speed=1.24x    frame= 5357 fps= 75 q=14.0 size= 1047808kB time=00:01:28.80 bitrate=96656.7kbits/s speed=1.24x    frame= 5394 fps= 75 q=15.0 size= 1055744kB time=00:01:29.42 bitrate=96716.5kbits/s speed=1.24x    frame= 5428 fps= 74 q=14.0 size= 1062912kB time=00:01:29.98 bitrate=96759.4kbits/s speed=1.23x    frame= 5461 fps= 74 q=15.0 size= 1070336kB time=00:01:30.54 bitrate=96842.8kbits/s speed=1.23x    frame= 5501 fps= 74 q=16.0 size= 1078528kB time=00:01:31.20 bitrate=96870.0kbits/s speed=1.23x    frame= 5535 fps= 74 q=17.0 size= 1087488kB time=00:01:31.77 bitrate=97071.1kbits/s speed=1.23x    frame= 5568 fps= 74 q=18.0 size= 1102336kB time=00:01:32.32 bitrate=97809.7kbits/s speed=1.23x    frame= 5605 fps= 74 q=18.0 size= 1117952kB time=00:01:32.94 bitrate=98536.4kbits/s speed=1.23x    frame= 5641 fps= 74 q=19.0 size= 1131520kB time=00:01:33.54 bitrate=99092.0kbits/s speed=1.23x    frame= 5667 fps= 74 q=19.0 size= 1140736kB time=00:01:33.97 bitrate=99438.0kbits/s speed=1.23x    frame= 5702 fps= 74 q=19.0 size= 1154560kB time=00:01:34.56 bitrate=100021.6kbits/s speed=1.23x    frame= 5743 fps= 74 q=19.0 size= 1168640kB time=00:01:35.24 bitrate=100514.2kbits/s speed=1.23x    frame= 5772 fps= 74 q=19.0 size= 1177600kB time=00:01:35.72 bitrate=100773.0kbits/s speed=1.23x    frame= 5801 fps= 74 q=19.0 size= 1187840kB time=00:01:36.21 bitrate=101138.1kbits/s speed=1.23x    frame= 5843 fps= 74 q=19.0 size= 1200640kB time=00:01:36.91 bitrate=101488.9kbits/s speed=1.23x    frame= 5873 fps= 74 q=19.0 size= 1209088kB time=00:01:37.41 bitrate=101677.9kbits/s speed=1.23x    frame= 5901 fps= 74 q=19.0 size= 1216256kB time=00:01:37.88 bitrate=101792.5kbits/s speed=1.22x    frame= 5934 fps= 74 q=18.0 size= 1224704kB time=00:01:38.43 bitrate=101926.3kbits/s speed=1.22x    frame= 5971 fps= 74 q=15.0 size= 1232384kB time=00:01:39.04 bitrate=101926.2kbits/s speed=1.22x    frame= 6010 fps= 74 q=16.0 size= 1238528kB time=00:01:39.69 bitrate=101765.9kbits/s speed=1.22x    frame= 6052 fps= 74 q=16.0 size= 1244928kB time=00:01:40.40 bitrate=101577.8kbits/s speed=1.22x    frame= 6099 fps= 74 q=16.0 size= 1252352kB time=00:01:41.18 bitrate=101391.7kbits/s speed=1.23x    frame= 6132 fps= 74 q=16.0 size= 1257984kB time=00:01:41.73 bitrate=101296.5kbits/s speed=1.22x    frame= 6164 fps= 74 q=15.0 size= 1263616kB time=00:01:42.26 bitrate=101218.9kbits/s speed=1.22x    frame= 6202 fps= 74 q=15.0 size= 1269504kB time=00:01:42.90 bitrate=101064.0kbits/s speed=1.22x    frame= 6245 fps= 74 q=17.0 size= 1276416kB time=00:01:43.62 bitrate=100910.8kbits/s speed=1.22x    frame= 6281 fps= 74 q=16.0 size= 1282816kB time=00:01:44.22 bitrate=100832.3kbits/s speed=1.22x    frame= 6323 fps= 74 q=16.0 size= 1289984kB time=00:01:44.92 bitrate=100718.6kbits/s speed=1.23x    frame= 6361 fps= 74 q=16.0 size= 1296640kB time=00:01:45.55 bitrate=100630.2kbits/s speed=1.23x    frame= 6389 fps= 74 q=16.0 size= 1301504kB time=00:01:46.02 bitrate=100562.7kbits/s speed=1.22x    frame= 6436 fps= 74 q=14.0 size= 1310464kB time=00:01:46.80 bitrate=100511.6kbits/s speed=1.23x    frame= 6469 fps= 74 q=19.0 size= 1317120kB time=00:01:47.35 bitrate=100504.1kbits/s speed=1.22x    frame= 6500 fps= 74 q=19.0 size= 1325824kB time=00:01:47.87 bitrate=100683.2kbits/s speed=1.22x    frame= 6533 fps= 74 q=20.0 size= 1337088kB time=00:01:48.42 bitrate=101023.0kbits/s speed=1.22x    frame= 6568 fps= 74 q=20.0 size= 1348096kB time=00:01:49.00 bitrate=101309.1kbits/s speed=1.22x    frame= 6609 fps= 74 q=21.0 size= 1362688kB time=00:01:49.69 bitrate=101767.2kbits/s speed=1.22x    frame= 6635 fps= 74 q=21.0 size= 1373440kB time=00:01:50.12 bitrate=102166.1kbits/s speed=1.22x    frame= 6672 fps= 74 q=21.0 size= 1387008kB time=00:01:50.74 bitrate=102600.3kbits/s speed=1.22x    frame= 6705 fps= 73 q=22.0 size= 1399296kB time=00:01:51.29 bitrate=102997.2kbits/s speed=1.22x    frame= 6733 fps= 73 q=18.0 size= 1409792kB time=00:01:51.76 bitrate=103336.1kbits/s speed=1.22x    frame= 6771 fps= 73 q=18.0 size= 1422592kB time=00:01:52.39 bitrate=103686.2kbits/s speed=1.22x    frame= 6822 fps= 74 q=15.0 size= 1432576kB time=00:01:53.24 bitrate=103629.4kbits/s speed=1.22x    frame= 6859 fps= 74 q=16.0 size= 1438976kB time=00:01:53.86 bitrate=103528.0kbits/s speed=1.22x    frame= 6895 fps= 74 q=18.0 size= 1445888kB time=00:01:54.46 bitrate=103479.5kbits/s speed=1.22x    frame= 6939 fps= 74 q=16.0 size= 1453056kB time=00:01:55.19 bitrate=103329.8kbits/s speed=1.22x    frame= 6979 fps= 74 q=17.0 size= 1459200kB time=00:01:55.86 bitrate=103169.1kbits/s speed=1.22x    frame= 7031 fps= 74 q=17.0 size= 1467648kB time=00:01:56.73 bitrate=102995.2kbits/s speed=1.22x    frame= 7073 fps= 74 q=18.0 size= 1474816kB time=00:01:57.43 bitrate=102880.7kbits/s speed=1.23x    frame= 7107 fps= 74 q=15.0 size= 1481472kB time=00:01:58.00 bitrate=102848.2kbits/s speed=1.22x    frame= 7152 fps= 74 q=14.0 size= 1488896kB time=00:01:58.75 bitrate=102710.1kbits/s speed=1.23x    frame= 7199 fps= 74 q=15.0 size= 1495040kB time=00:01:59.53 bitrate=102457.5kbits/s speed=1.23x    frame= 7237 fps= 74 q=14.0 size= 1500160kB time=00:02:00.17 bitrate=102266.0kbits/s speed=1.23x    frame= 7290 fps= 74 q=16.0 size= 1506816kB time=00:02:01.05 bitrate=101969.4kbits/s speed=1.23x    frame= 7333 fps= 74 q=16.0 size= 1511936kB time=00:02:01.77 bitrate=101713.1kbits/s speed=1.23x    frame= 7377 fps= 74 q=12.0 size= 1517312kB time=00:02:02.50 bitrate=101463.1kbits/s speed=1.23x    frame= 7425 fps= 74 q=15.0 size= 1522432kB time=00:02:03.30 bitrate=101144.4kbits/s speed=1.23x    frame= 7467 fps= 74 q=11.0 size= 1527040kB time=00:02:04.00 bitrate=100877.3kbits/s speed=1.23x    frame= 7512 fps= 74 q=11.0 size= 1531904kB time=00:02:04.75 bitrate=100589.6kbits/s speed=1.24x    frame= 7563 fps= 75 q=10.0 size= 1537280kB time=00:02:05.60 bitrate=100258.8kbits/s speed=1.24x    frame= 7615 fps= 75 q=13.0 size= 1542912kB time=00:02:06.47 bitrate=99935.9kbits/s speed=1.24x    frame= 7667 fps= 75 q=10.0 size= 1548288kB time=00:02:07.34 bitrate=99600.9kbits/s speed=1.24x    frame= 7697 fps= 75 q=15.0 size= 1551104kB time=00:02:07.84 bitrate=99391.5kbits/s speed=1.24x    frame= 7734 fps= 75 q=15.0 size= 1557504kB time=00:02:08.46 bitrate=99322.0kbits/s speed=1.24x    frame= 7774 fps= 75 q=17.0 size= 1563392kB time=00:02:09.12 bitrate=99182.2kbits/s speed=1.24x    frame= 7810 fps= 75 q=19.0 size= 1570048kB time=00:02:09.72 bitrate=99143.4kbits/s speed=1.24x    frame= 7846 fps= 75 q=17.0 size= 1580032kB time=00:02:10.33 bitrate=99314.0kbits/s speed=1.24x    frame= 7880 fps= 75 q=17.0 size= 1587712kB time=00:02:10.89 bitrate=99364.3kbits/s speed=1.24x    frame= 7920 fps= 75 q=16.0 size= 1595648kB time=00:02:11.56 bitrate=99354.4kbits/s speed=1.24x    frame= 7959 fps= 75 q=16.0 size= 1603840kB time=00:02:12.21 bitrate=99373.1kbits/s speed=1.24x    frame= 7998 fps= 75 q=16.0 size= 1611264kB time=00:02:12.86 bitrate=99344.2kbits/s speed=1.24x    frame= 8035 fps= 75 q=17.0 size= 1618432kB time=00:02:13.48 bitrate=99324.7kbits/s speed=1.24x    frame= 8073 fps= 75 q=18.0 size= 1627392kB time=00:02:14.11 bitrate=99402.5kbits/s speed=1.24x    frame= 8109 fps= 75 q=18.0 size= 1636608kB time=00:02:14.71 bitrate=99519.7kbits/s speed=1.24x    frame= 8152 fps= 75 q=19.0 size= 1648640kB time=00:02:15.43 bitrate=99720.3kbits/s speed=1.24x    frame= 8180 fps= 75 q=19.0 size= 1657344kB time=00:02:15.90 bitrate=99902.2kbits/s speed=1.24x    frame= 8213 fps= 75 q=19.0 size= 1668608kB time=00:02:16.45 bitrate=100175.4kbits/s speed=1.24x    frame= 8251 fps= 75 q=21.0 size= 1682432kB time=00:02:17.08 bitrate=100538.2kbits/s speed=1.24x    frame= 8284 fps= 75 q=24.0 size= 1698048kB time=00:02:17.63 bitrate=101065.5kbits/s speed=1.24x    frame= 8308 fps= 74 q=22.0 size= 1709824kB time=00:02:18.03 bitrate=101471.2kbits/s speed=1.24x    frame= 8347 fps= 74 q=22.0 size= 1729536kB time=00:02:18.68 bitrate=102159.5kbits/s speed=1.24x    frame= 8380 fps= 74 q=24.0 size= 1745664kB time=00:02:19.23 bitrate=102704.5kbits/s speed=1.24x    frame= 8413 fps= 74 q=24.0 size= 1759744kB time=00:02:19.78 bitrate=103125.1kbits/s speed=1.23x    frame= 8440 fps= 74 q=25.0 size= 1771520kB time=00:02:20.24 bitrate=103481.7kbits/s speed=1.23x    frame= 8477 fps= 74 q=24.0 size= 1786624kB time=00:02:20.85 bitrate=103906.7kbits/s speed=1.23x    frame= 8519 fps= 74 q=17.0 size= 1803264kB time=00:02:21.55 bitrate=104355.3kbits/s speed=1.23x    frame= 8549 fps= 74 q=17.0 size= 1808640kB time=00:02:22.05 bitrate=104297.6kbits/s speed=1.23x    frame= 8593 fps= 74 q=16.0 size= 1813504kB time=00:02:22.79 bitrate=104040.5kbits/s speed=1.23x    frame= 8641 fps= 74 q=16.0 size= 1817856kB time=00:02:23.59 bitrate=103708.6kbits/s speed=1.24x    frame= 8681 fps= 74 q=16.0 size= 1822208kB time=00:02:24.26 bitrate=103476.0kbits/s speed=1.24x    frame= 8725 fps= 74 q=17.0 size= 1826560kB time=00:02:24.99 bitrate=103198.0kbits/s speed=1.24x    frame= 8772 fps= 74 q=16.0 size= 1831680kB time=00:02:25.77 bitrate=102930.6kbits/s speed=1.24x    frame= 8806 fps= 74 q=19.0 size= 1836032kB time=00:02:26.34 bitrate=102775.3kbits/s speed=1.24x    frame= 8844 fps= 74 q=19.0 size= 1841664kB time=00:02:26.98 bitrate=102645.9kbits/s speed=1.24x    frame= 8881 fps= 74 q=19.0 size= 1847296kB time=00:02:27.59 bitrate=102529.2kbits/s speed=1.24x    frame= 8911 fps= 74 q=18.0 size= 1852160kB time=00:02:28.09 bitrate=102451.7kbits/s speed=1.24x    frame= 8948 fps= 74 q=18.0 size= 1858304kB time=00:02:28.71 bitrate=102364.9kbits/s speed=1.24x    frame= 8987 fps= 74 q=18.0 size= 1864448kB time=00:02:29.36 bitrate=102256.0kbits/s speed=1.24x    frame= 9018 fps= 74 q=18.0 size= 1869056kB time=00:02:29.88 bitrate=102155.0kbits/s speed=1.24x    frame= 9053 fps= 74 q=17.0 size= 1874944kB time=00:02:30.46 bitrate=102079.1kbits/s speed=1.23x    frame= 9096 fps= 74 q=17.0 size= 1880832kB time=00:02:31.18 bitrate=101913.8kbits/s speed=1.24x    frame= 9128 fps= 74 q=16.0 size= 1884160kB time=00:02:31.71 bitrate=101734.9kbits/s speed=1.23x    frame= 9175 fps= 74 q=17.0 size= 1889536kB time=00:02:32.50 bitrate=101500.6kbits/s speed=1.24x    frame= 9212 fps= 74 q=17.0 size= 1893632kB time=00:02:33.11 bitrate=101310.5kbits/s speed=1.24x    frame= 9248 fps= 74 q=18.0 size= 1897472kB time=00:02:33.72 bitrate=101119.3kbits/s speed=1.24x    frame= 9275 fps= 74 q=18.0 size= 1901312kB time=00:02:34.17 bitrate=101027.9kbits/s speed=1.23x    frame= 9311 fps= 74 q=17.0 size= 1907456kB time=00:02:34.77 bitrate=100961.1kbits/s speed=1.23x    frame= 9353 fps= 74 q=17.0 size= 1914624kB time=00:02:35.47 bitrate=100883.7kbits/s speed=1.23x    frame= 9393 fps= 74 q=17.0 size= 1921024kB time=00:02:36.13 bitrate=100788.4kbits/s speed=1.23x    frame= 9432 fps= 74 q=15.0 size= 1928448kB time=00:02:36.79 bitrate=100758.0kbits/s speed=1.23x    frame= 9471 fps= 74 q=17.0 size= 1935360kB time=00:02:37.44 bitrate=100701.2kbits/s speed=1.24x    frame= 9503 fps= 74 q=17.0 size= 1940992kB time=00:02:37.97 bitrate=100653.0kbits/s speed=1.23x    frame= 9539 fps= 74 q=17.0 size= 1948160kB time=00:02:38.57 bitrate=100642.1kbits/s speed=1.23x    frame= 9579 fps= 74 q=17.0 size= 1955584kB time=00:02:39.24 bitrate=100602.2kbits/s speed=1.23x    frame= 9615 fps= 74 q=17.0 size= 1961728kB time=00:02:39.84 bitrate=100539.1kbits/s speed=1.23x    frame= 9654 fps= 74 q=17.0 size= 1968384kB time=00:02:40.49 bitrate=100471.2kbits/s speed=1.23x    frame= 9695 fps= 74 q=16.0 size= 1974528kB time=00:02:41.17 bitrate=100357.1kbits/s speed=1.23x    frame= 9740 fps= 74 q=22.0 size= 1981696kB time=00:02:41.92 bitrate=100254.5kbits/s speed=1.24x    frame= 9773 fps= 74 q=20.0 size= 1988352kB time=00:02:42.47 bitrate=100250.4kbits/s speed=1.23x    frame= 9809 fps= 74 q=20.0 size= 1999360kB time=00:02:43.07 bitrate=100434.1kbits/s speed=1.23x    frame= 9848 fps= 74 q=20.0 size= 2010368kB time=00:02:43.73 bitrate=100585.8kbits/s speed=1.23x    frame= 9875 fps= 74 q=20.0 size= 2019072kB time=00:02:44.18 bitrate=100744.1kbits/s speed=1.23x    frame= 9910 fps= 74 q=20.0 size= 2028288kB time=00:02:44.76 bitrate=100845.3kbits/s speed=1.23x    frame= 9947 fps= 74 q=20.0 size= 2038528kB time=00:02:45.38 bitrate=100976.1kbits/s speed=1.23x    frame= 9977 fps= 74 q=20.0 size= 2047488kB time=00:02:45.88 bitrate=101113.9kbits/s speed=1.23x    frame=10008 fps= 74 q=21.0 size= 2057728kB time=00:02:46.39 bitrate=101303.8kbits/s speed=1.23x    frame=10053 fps= 74 q=16.0 size= 2071040kB time=00:02:47.15 bitrate=101501.2kbits/s speed=1.23x    frame=10091 fps= 74 q=15.0 size= 2078464kB time=00:02:47.78 bitrate=101480.1kbits/s speed=1.23x    frame=10124 fps= 74 q=17.0 size= 2082560kB time=00:02:48.33 bitrate=101347.6kbits/s speed=1.23x    frame=10169 fps= 74 q=16.0 size= 2087936kB time=00:02:49.08 bitrate=101158.0kbits/s speed=1.23x    frame=10212 fps= 74 q=16.0 size= 2093056kB time=00:02:49.80 bitrate=100977.7kbits/s speed=1.23x    frame=10251 fps= 74 q=16.0 size= 2098432kB time=00:02:50.45 bitrate=100850.6kbits/s speed=1.23x    frame=10297 fps= 74 q=16.0 size= 2104320kB time=00:02:51.22 bitrate=100680.3kbits/s speed=1.23x    frame=10335 fps= 74 q=15.0 size= 2109184kB time=00:02:51.85 bitrate=100540.7kbits/s speed=1.23x    frame=10377 fps= 74 q=16.0 size= 2115072kB time=00:02:52.55 bitrate=100412.0kbits/s speed=1.23x    frame=10425 fps= 74 q=16.0 size= 2121216kB time=00:02:53.35 bitrate=100238.5kbits/s speed=1.24x    frame=10459 fps= 74 q=16.0 size= 2125824kB time=00:02:53.92 bitrate=100128.6kbits/s speed=1.24x    frame=10500 fps= 74 q=16.0 size= 2131712kB time=00:02:54.60 bitrate=100012.6kbits/s speed=1.24x    frame=10540 fps= 74 q=15.0 size= 2136064kB time=00:02:55.27 bitrate=99835.2kbits/s speed=1.24x    frame=10576 fps= 74 q=15.0 size= 2139648kB time=00:02:55.87 bitrate=99661.3kbits/s speed=1.24x    frame=10621 fps= 74 q=15.0 size= 2144768kB time=00:02:56.62 bitrate=99475.1kbits/s speed=1.24x    frame=10657 fps= 74 q=15.0 size= 2148608kB time=00:02:57.22 bitrate=99315.5kbits/s speed=1.24x    frame=10690 fps= 74 q=15.0 size= 2152448kB time=00:02:57.77 bitrate=99184.9kbits/s speed=1.24x    frame=10724 fps= 74 q=15.0 size= 2158336kB time=00:02:58.34 bitrate=99139.9kbits/s speed=1.24x    frame=10768 fps= 74 q=14.0 size= 2163712kB time=00:02:59.07 bitrate=98979.4kbits/s speed=1.24x    frame=10808 fps= 74 q=14.0 size= 2169088kB time=00:02:59.74 bitrate=98857.0kbits/s speed=1.24x    frame=10844 fps= 74 q=14.0 size= 2173440kB time=00:03:00.34 bitrate=98725.4kbits/s speed=1.24x    frame=10885 fps= 74 q=14.0 size= 2178048kB time=00:03:01.03 bitrate=98560.9kbits/s speed=1.24x    frame=10932 fps= 74 q=13.0 size= 2183936kB time=00:03:01.81 bitrate=98401.1kbits/s speed=1.24x    frame=10970 fps= 74 q=13.0 size= 2189056kB time=00:03:02.44 bitrate=98289.1kbits/s speed=1.24x    frame=11007 fps= 74 q=13.0 size= 2193152kB time=00:03:03.06 bitrate=98141.0kbits/s speed=1.24x    frame=11044 fps= 74 q=23.0 size= 2197760kB time=00:03:03.68 bitrate=98016.7kbits/s speed=1.24x    frame=11074 fps= 74 q=21.0 size= 2213632kB time=00:03:04.18 bitrate=98456.3kbits/s speed=1.24x    frame=11107 fps= 74 q=24.0 size= 2232832kB time=00:03:04.73 bitrate=99014.3kbits/s speed=1.24x    frame=11139 fps= 74 q=25.0 size= 2249472kB time=00:03:05.26 bitrate=99464.7kbits/s speed=1.24x    frame=11174 fps= 74 q=25.0 size= 2264320kB time=00:03:05.85 bitrate=99806.7kbits/s speed=1.23x    frame=11205 fps= 74 q=24.0 size= 2276608kB time=00:03:06.36 bitrate=100069.8kbits/s speed=1.23x    frame=11236 fps= 74 q=25.0 size= 2288384kB time=00:03:06.88 bitrate=100309.1kbits/s speed=1.23x    frame=11271 fps= 74 q=25.0 size= 2302208kB time=00:03:07.47 bitrate=100600.7kbits/s speed=1.23x    frame=11297 fps= 74 q=25.0 size= 2312704kB time=00:03:07.90 bitrate=100826.1kbits/s speed=1.23x    frame=11325 fps= 74 q=21.0 size= 2323200kB time=00:03:08.37 bitrate=101032.5kbits/s speed=1.23x    frame=11364 fps= 74 q=19.0 size= 2337792kB time=00:03:09.02 bitrate=101317.2kbits/s speed=1.23x    frame=11401 fps= 74 q=20.0 size= 2351360kB time=00:03:09.63 bitrate=101573.5kbits/s speed=1.23x    frame=11429 fps= 74 q=21.0 size= 2361856kB time=00:03:10.10 bitrate=101776.2kbits/s speed=1.23x    frame=11465 fps= 74 q=21.0 size= 2375680kB time=00:03:10.70 bitrate=102049.5kbits/s speed=1.23x    frame=11509 fps= 74 q=21.0 size= 2391040kB time=00:03:11.44 bitrate=102315.4kbits/s speed=1.23x    frame=11539 fps= 74 q=22.0 size= 2401024kB time=00:03:11.94 bitrate=102474.8kbits/s speed=1.23x    frame=11574 fps= 74 q=20.0 size= 2414080kB time=00:03:12.52 bitrate=102719.5kbits/s speed=1.23x    frame=11606 fps= 74 q=22.0 size= 2424832kB time=00:03:13.05 bitrate=102891.7kbits/s speed=1.23x    frame=11645 fps= 74 q=23.0 size= 2438656kB time=00:03:13.71 bitrate=103130.7kbits/s speed=1.23x    frame=11679 fps= 74 q=21.0 size= 2450944kB time=00:03:14.27 bitrate=103347.7kbits/s speed=1.23x    frame=11720 fps= 74 q=21.0 size= 2463232kB time=00:03:14.96 bitrate=103501.5kbits/s speed=1.23x    frame=11758 fps= 74 q=21.0 size= 2473728kB time=00:03:15.59 bitrate=103605.6kbits/s speed=1.23x    frame=11783 fps= 74 q=22.0 size= 2480896kB time=00:03:16.01 bitrate=103684.7kbits/s speed=1.23x    frame=11818 fps= 74 q=22.0 size= 2491648kB time=00:03:16.59 bitrate=103824.8kbits/s speed=1.23x    frame=11856 fps= 74 q=21.0 size= 2502400kB time=00:03:17.23 bitrate=103937.6kbits/s speed=1.23x    frame=11893 fps= 74 q=21.0 size= 2512896kB time=00:03:17.84 bitrate=104047.9kbits/s speed=1.23x    frame=11925 fps= 74 q=21.0 size= 2522624kB time=00:03:18.38 bitrate=104169.6kbits/s speed=1.23x    frame=11967 fps= 74 q=21.0 size= 2533376kB time=00:03:19.08 bitrate=104245.4kbits/s speed=1.23x    frame=12000 fps= 74 q=22.0 size= 2542336kB time=00:03:19.63 bitrate=104325.6kbits/s speed=1.23x    frame=12035 fps= 74 q=22.0 size= 2552064kB time=00:03:20.21 bitrate=104419.4kbits/s speed=1.23x    frame=12078 fps= 74 q=22.0 size= 2562560kB time=00:03:20.93 bitrate=104474.5kbits/s speed=1.23x    frame=12115 fps= 74 q=22.0 size= 2572288kB time=00:03:21.55 bitrate=104549.9kbits/s speed=1.23x    frame=12141 fps= 74 q=19.0 size= 2578688kB time=00:03:21.98 bitrate=104585.0kbits/s speed=1.23x    frame=12180 fps= 74 q=19.0 size= 2585856kB time=00:03:22.63 bitrate=104538.9kbits/s speed=1.23x    frame=12227 fps= 74 q=18.0 size= 2589952kB time=00:03:23.41 bitrate=104300.9kbits/s speed=1.23x    frame=12259 fps= 74 q=19.0 size= 2592768kB time=00:03:23.95 bitrate=104141.0kbits/s speed=1.23x    frame=12302 fps= 74 q=19.0 size= 2597120kB time=00:03:24.67 bitrate=103950.2kbits/s speed=1.23x    frame=12338 fps= 74 q=19.0 size= 2600448kB time=00:03:25.27 bitrate=103778.9kbits/s speed=1.23x    frame=12374 fps= 74 q=18.0 size= 2604032kB time=00:03:25.87 bitrate=103618.7kbits/s speed=1.23x    frame=12414 fps= 74 q=18.0 size= 2608128kB time=00:03:26.53 bitrate=103446.4kbits/s speed=1.23x    frame=12457 fps= 74 q=18.0 size= 2612480kB time=00:03:27.25 bitrate=103260.3kbits/s speed=1.23x    frame=12495 fps= 74 q=18.0 size= 2617088kB time=00:03:27.89 bitrate=103127.0kbits/s speed=1.23x    frame=12532 fps= 74 q=18.0 size= 2621696kB time=00:03:28.50 bitrate=103002.8kbits/s speed=1.23x    frame=12572 fps= 74 q=18.0 size= 2626304kB time=00:03:29.17 bitrate=102854.6kbits/s speed=1.23x    frame=12619 fps= 74 q=18.0 size= 2631680kB time=00:03:29.95 bitrate=102680.2kbits/s speed=1.23x    frame=12661 fps= 74 q=21.0 size= 2637056kB time=00:03:30.66 bitrate=102547.8kbits/s speed=1.23x    frame=12695 fps= 74 q=21.0 size= 2643712kB time=00:03:31.22 bitrate=102530.5kbits/s speed=1.23x    frame=12729 fps= 74 q=21.0 size= 2652672kB time=00:03:31.79 bitrate=102602.5kbits/s speed=1.23x    frame=12754 fps= 74 q=21.0 size= 2659840kB time=00:03:32.21 bitrate=102677.5kbits/s speed=1.23x    frame=12790 fps= 74 q=21.0 size= 2667008kB time=00:03:32.81 bitrate=102663.7kbits/s speed=1.23x    frame=12826 fps= 74 q=20.0 size= 2674176kB time=00:03:33.41 bitrate=102649.9kbits/s speed=1.23x    frame=12861 fps= 74 q=21.0 size= 2680576kB time=00:03:33.99 bitrate=102614.8kbits/s speed=1.23x    frame=12902 fps= 74 q=20.0 size= 2688512kB time=00:03:34.68 bitrate=102590.7kbits/s speed=1.23x    frame=12939 fps= 74 q=20.0 size= 2695168kB time=00:03:35.29 bitrate=102549.8kbits/s speed=1.23x    frame=12970 fps= 74 q=21.0 size= 2700800kB time=00:03:35.81 bitrate=102517.8kbits/s speed=1.22x    frame=12997 fps= 74 q=20.0 size= 2706432kB time=00:03:36.26 bitrate=102517.6kbits/s speed=1.22x    frame=13034 fps= 74 q=20.0 size= 2712832kB time=00:03:36.88 bitrate=102467.6kbits/s speed=1.22x    frame=13069 fps= 74 q=21.0 size= 2719232kB time=00:03:37.46 bitrate=102433.6kbits/s speed=1.22x    frame=13105 fps= 74 q=18.0 size= 2725376kB time=00:03:38.06 bitrate=102382.2kbits/s speed=1.22x    frame=13140 fps= 73 q=20.0 size= 2731264kB time=00:03:38.65 bitrate=102329.4kbits/s speed=1.22x    frame=13180 fps= 74 q=19.0 size= 2737408kB time=00:03:39.31 bitrate=102247.6kbits/s speed=1.22x    frame=13214 fps= 73 q=19.0 size= 2742528kB time=00:03:39.88 bitrate=102174.5kbits/s speed=1.22x    frame=13245 fps= 73 q=19.0 size= 2748160kB time=00:03:40.40 bitrate=102144.1kbits/s speed=1.22x    frame=13281 fps= 73 q=20.0 size= 2754048kB time=00:03:41.00 bitrate=102084.8kbits/s speed=1.22x    frame=13317 fps= 73 q=20.0 size= 2759936kB time=00:03:41.60 bitrate=102025.8kbits/s speed=1.22x    frame=13349 fps= 73 q=19.0 size= 2765056kB time=00:03:42.13 bitrate=101969.4kbits/s speed=1.22x    frame=13388 fps= 73 q=16.0 size= 2771200kB time=00:03:42.78 bitrate=101897.5kbits/s speed=1.22x    frame=13426 fps= 73 q=17.0 size= 2777344kB time=00:03:43.42 bitrate=101833.6kbits/s speed=1.22x    frame=13465 fps= 73 q=17.0 size= 2783744kB time=00:03:44.07 bitrate=101771.9kbits/s speed=1.22x    frame=13511 fps= 73 q=17.0 size= 2791680kB time=00:03:44.84 bitrate=101713.7kbits/s speed=1.22x    frame=13549 fps= 73 q=16.0 size= 2798848kB time=00:03:45.47 bitrate=101688.1kbits/s speed=1.22x    frame=13582 fps= 73 q=16.0 size= 2804736kB time=00:03:46.02 bitrate=101653.9kbits/s speed=1.22x    frame=13621 fps= 73 q=16.0 size= 2812160kB time=00:03:46.67 bitrate=101630.4kbits/s speed=1.22x    frame=13659 fps= 73 q=18.0 size= 2818048kB time=00:03:47.31 bitrate=101559.1kbits/s speed=1.22x    frame=13696 fps= 73 q=17.0 size= 2824960kB time=00:03:47.92 bitrate=101532.5kbits/s speed=1.22x    frame=13736 fps= 73 q=17.0 size= 2829056kB time=00:03:48.59 bitrate=101382.9kbits/s speed=1.22x    frame=13777 fps= 74 q=16.0 size= 2832640kB time=00:03:49.27 bitrate=101208.5kbits/s speed=1.22x    frame=13817 fps= 74 q=16.0 size= 2836224kB time=00:03:49.94 bitrate=101042.4kbits/s speed=1.22x    frame=13861 fps= 74 q=16.0 size= 2840320kB time=00:03:50.68 bitrate=100866.4kbits/s speed=1.22x    frame=13904 fps= 74 q=17.0 size= 2844672kB time=00:03:51.39 bitrate=100707.7kbits/s speed=1.22x    frame=13938 fps= 74 q=16.0 size= 2847488kB time=00:03:51.96 bitrate=100560.9kbits/s speed=1.22x    frame=13973 fps= 74 q=17.0 size= 2851072kB time=00:03:52.54 bitrate=100434.7kbits/s speed=1.22x    frame=14017 fps= 74 q=16.0 size= 2855168kB time=00:03:53.28 bitrate=100262.5kbits/s speed=1.22x    frame=14053 fps= 74 q=16.0 size= 2858496kB time=00:03:53.88 bitrate=100121.6kbits/s speed=1.22x    frame=14091 fps= 74 q=16.0 size= 2862336kB time=00:03:54.51 bitrate=99985.0kbits/s speed=1.22x    frame=14129 fps= 74 q=18.0 size= 2865408kB time=00:03:55.15 bitrate=99822.5kbits/s speed=1.22x    frame=14167 fps= 74 q=19.0 size= 2874624kB time=00:03:55.78 bitrate=99874.3kbits/s speed=1.22x    frame=14205 fps= 74 q=17.0 size= 2884352kB time=00:03:56.41 bitrate=99943.6kbits/s speed=1.22x    frame=14252 fps= 74 q=19.0 size= 2894592kB time=00:03:57.20 bitrate=99966.8kbits/s speed=1.23x    frame=14289 fps= 74 q=18.0 size= 2903552kB time=00:03:57.82 bitrate=100016.0kbits/s speed=1.23x    frame=14322 fps= 74 q=18.0 size= 2912000kB time=00:03:58.37 bitrate=100075.3kbits/s speed=1.22x    frame=14366 fps= 74 q=18.0 size= 2921728kB time=00:03:59.10 bitrate=100101.4kbits/s speed=1.23x    frame=14406 fps= 74 q=20.0 size= 2930688kB time=00:03:59.77 bitrate=100128.9kbits/s speed=1.23x    frame=14441 fps= 74 q=18.0 size= 2939392kB time=00:04:00.35 bitrate=100182.3kbits/s speed=1.23x    frame=14479 fps= 74 q=18.0 size= 2947840kB time=00:04:00.99 bitrate=100205.9kbits/s speed=1.23x    frame=14524 fps= 74 q=22.0 size= 2957056kB time=00:04:01.74 bitrate=100207.0kbits/s speed=1.23x    frame=14559 fps= 74 q=18.0 size= 2965504kB time=00:04:02.32 bitrate=100251.2kbits/s speed=1.23x    frame=14599 fps= 74 q=19.0 size= 2974720kB time=00:04:02.99 bitrate=100286.5kbits/s speed=1.23x    frame=14633 fps= 74 q=19.0 size= 2983168kB time=00:04:03.56 bitrate=100337.1kbits/s speed=1.23x    frame=14663 fps= 74 q=19.0 size= 2991104kB time=00:04:04.06 bitrate=100397.7kbits/s speed=1.23x    frame=14699 fps= 74 q=18.0 size= 3000832kB time=00:04:04.66 bitrate=100477.0kbits/s speed=1.22x    frame=14737 fps= 74 q=17.0 size= 3009280kB time=00:04:05.29 bitrate=100499.5kbits/s speed=1.22x    frame=14778 fps= 74 q=17.0 size= 3014656kB time=00:04:05.97 bitrate=100399.0kbits/s speed=1.23x    frame=14821 fps= 74 q=16.0 size= 3021056kB time=00:04:06.69 bitrate=100319.6kbits/s speed=1.23x    frame=14865 fps= 74 q=16.0 size= 3026944kB time=00:04:07.43 bitrate=100216.9kbits/s speed=1.23x    frame=14900 fps= 74 q=17.0 size= 3031808kB time=00:04:08.01 bitrate=100141.6kbits/s speed=1.23x    frame=14937 fps= 74 q=16.0 size= 3038208kB time=00:04:08.63 bitrate=100103.9kbits/s speed=1.23x    frame=14985 fps= 74 q=16.0 size= 3045888kB time=00:04:09.43 bitrate=100034.7kbits/s speed=1.23x    frame=15017 fps= 74 q=16.0 size= 3051520kB time=00:04:09.96 bitrate=100005.6kbits/s speed=1.23x    frame=15052 fps= 74 q=22.0 size= 3057920kB time=00:04:10.55 bitrate=99981.8kbits/s speed=1.23x    frame=15090 fps= 74 q=22.0 size= 3070208kB time=00:04:11.18 bitrate=100130.2kbits/s speed=1.23x    frame=15120 fps= 74 q=22.0 size= 3084032kB time=00:04:11.68 bitrate=100381.1kbits/s speed=1.23x    frame=15144 fps= 74 q=22.0 size= 3094784kB time=00:04:12.08 bitrate=100571.0kbits/s speed=1.22x    frame=15177 fps= 74 q=22.0 size= 3109632kB time=00:04:12.63 bitrate=100833.3kbits/s speed=1.22x    frame=15213 fps= 74 q=22.0 size= 3124992kB time=00:04:13.23 bitrate=101091.1kbits/s speed=1.22x    frame=15246 fps= 73 q=23.0 size= 3138816kB time=00:04:13.78 bitrate=101318.0kbits/s speed=1.22x    frame=15275 fps= 73 q=23.0 size= 3151616kB time=00:04:14.27 bitrate=101537.6kbits/s speed=1.22x    frame=15321 fps= 73 q=21.0 size= 3168256kB time=00:04:15.03 bitrate=101766.6kbits/s speed=1.22x    frame=15353 fps= 73 q=21.0 size= 3177728kB time=00:04:15.57 bitrate=101857.6kbits/s speed=1.22x    frame=15381 fps= 73 q=23.0 size= 3185408kB time=00:04:16.03 bitrate=101917.5kbits/s speed=1.22x    frame=15419 fps= 73 q=21.0 size= 3197184kB time=00:04:16.67 bitrate=102041.6kbits/s speed=1.22x    frame=15456 fps= 73 q=18.0 size= 3208704kB time=00:04:17.29 bitrate=102163.6kbits/s speed=1.22x    frame=15496 fps= 73 q=17.0 size= 3213312kB time=00:04:17.95 bitrate=102045.6kbits/s speed=1.22x    frame=15538 fps= 73 q=18.0 size= 3217408kB time=00:04:18.65 bitrate=101898.9kbits/s speed=1.22x    frame=15583 fps= 73 q=18.0 size= 3221504kB time=00:04:19.40 bitrate=101733.3kbits/s speed=1.22x    frame=15616 fps= 73 q=18.0 size= 3224576kB time=00:04:19.95 bitrate=101614.7kbits/s speed=1.22x    frame=15653 fps= 73 q=17.0 size= 3228416kB time=00:04:20.57 bitrate=101494.7kbits/s speed=1.22x    frame=15688 fps= 73 q=17.0 size= 3232000kB time=00:04:21.16 bitrate=101380.2kbits/s speed=1.22x    frame=15726 fps= 73 q=18.0 size= 3235840kB time=00:04:21.79 bitrate=101254.8kbits/s speed=1.22x    frame=15763 fps= 73 q=17.0 size= 3239936kB time=00:04:22.41 bitrate=101144.5kbits/s speed=1.22x    frame=15799 fps= 73 q=16.0 size= 3246592kB time=00:04:23.01 bitrate=101120.9kbits/s speed=1.22x    frame=15841 fps= 73 q=16.0 size= 3251968kB time=00:04:23.71 bitrate=101019.2kbits/s speed=1.22x    frame=15883 fps= 73 q=16.0 size= 3259136kB time=00:04:24.41 bitrate=100973.6kbits/s speed=1.22x    frame=15931 fps= 74 q=16.0 size= 3266304kB time=00:04:25.21 bitrate=100890.1kbits/s speed=1.22x    frame=15967 fps= 74 q=17.0 size= 3271680kB time=00:04:25.81 bitrate=100827.8kbits/s speed=1.22x    frame=15998 fps= 74 q=19.0 size= 3278080kB time=00:04:26.33 bitrate=100828.9kbits/s speed=1.22x    frame=16041 fps= 74 q=18.0 size= 3284992kB time=00:04:27.05 bitrate=100770.0kbits/s speed=1.22x    frame=16079 fps= 74 q=17.0 size= 3290880kB time=00:04:27.68 bitrate=100711.6kbits/s speed=1.22x    frame=16109 fps= 74 q=18.0 size= 3295232kB time=00:04:28.18 bitrate=100656.6kbits/s speed=1.22x    frame=16153 fps= 74 q=16.0 size= 3302400kB time=00:04:28.91 bitrate=100600.2kbits/s speed=1.22x    frame=16195 fps= 74 q=16.0 size= 3309312kB time=00:04:29.61 bitrate=100548.7kbits/s speed=1.22x    frame=16224 fps= 74 q=17.0 size= 3313664kB time=00:04:30.10 bitrate=100500.6kbits/s speed=1.22x    frame=16261 fps= 74 q=17.0 size= 3319808kB time=00:04:30.72 bitrate=100457.4kbits/s speed=1.22x    frame=16305 fps= 74 q=16.0 size= 3326464kB time=00:04:31.45 bitrate=100386.6kbits/s speed=1.22x    frame=16343 fps= 74 q=16.0 size= 3332352kB time=00:04:32.08 bitrate=100330.0kbits/s speed=1.22x    frame=16383 fps= 74 q=16.0 size= 3339008kB time=00:04:32.75 bitrate=100284.4kbits/s speed=1.22x    frame=16425 fps= 74 q=16.0 size= 3345664kB time=00:04:33.45 bitrate=100226.8kbits/s speed=1.23x    frame=16458 fps= 74 q=16.0 size= 3350784kB time=00:04:34.00 bitrate=100178.5kbits/s speed=1.22x    frame=16495 fps= 74 q=16.0 size= 3357440kB time=00:04:34.62 bitrate=100151.9kbits/s speed=1.22x    frame=16540 fps= 74 q=17.0 size= 3364096kB time=00:04:35.37 bitrate=100076.8kbits/s speed=1.23x    frame=16575 fps= 74 q=15.0 size= 3368960kB time=00:04:35.95 bitrate=100009.5kbits/s speed=1.23x    frame=16618 fps= 74 q=14.0 size= 3376128kB time=00:04:36.67 bitrate=99962.4kbits/s speed=1.23x    frame=16663 fps= 74 q=18.0 size= 3382528kB time=00:04:37.42 bitrate=99880.9kbits/s speed=1.23x    frame=16699 fps= 74 q=16.0 size= 3386624kB time=00:04:38.02 bitrate=99785.8kbits/s speed=1.23x    frame=16741 fps= 74 q=15.0 size= 3392000kB time=00:04:38.72 bitrate=99692.9kbits/s speed=1.23x    frame=16789 fps= 74 q=15.0 size= 3396864kB time=00:04:39.52 bitrate=99549.9kbits/s speed=1.23x    frame=16837 fps= 74 q=14.0 size= 3402496kB time=00:04:40.33 bitrate=99430.1kbits/s speed=1.23x    frame=16871 fps= 74 q=20.0 size= 3407360kB time=00:04:40.89 bitrate=99371.2kbits/s speed=1.23x    frame=16900 fps= 74 q=21.0 size= 3418112kB time=00:04:41.38 bitrate=99513.3kbits/s speed=1.23x    frame=16931 fps= 74 q=21.0 size= 3433472kB time=00:04:41.89 bitrate=99777.1kbits/s speed=1.23x    frame=16957 fps= 74 q=21.0 size= 3444736kB time=00:04:42.33 bitrate=99950.7kbits/s speed=1.23x    frame=17000 fps= 74 q=22.0 size= 3461376kB time=00:04:43.04 bitrate=100178.9kbits/s speed=1.23x    frame=17037 fps= 74 q=22.0 size= 3476736kB time=00:04:43.66 bitrate=100404.5kbits/s speed=1.23x    frame=17061 fps= 74 q=22.0 size= 3486208kB time=00:04:44.06 bitrate=100536.1kbits/s speed=1.22x    frame=17097 fps= 74 q=22.0 size= 3501056kB time=00:04:44.66 bitrate=100751.3kbits/s speed=1.22x    frame=17139 fps= 74 q=23.0 size= 3516160kB time=00:04:45.36 bitrate=100937.5kbits/s speed=1.23x    frame=17168 fps= 74 q=23.0 size= 3527168kB time=00:04:45.85 bitrate=101082.1kbits/s speed=1.22x    frame=17193 fps= 73 q=23.0 size= 3536640kB time=00:04:46.26 bitrate=101205.9kbits/s speed=1.22x    frame=17227 fps= 73 q=23.0 size= 3550976kB time=00:04:46.83 bitrate=101415.2kbits/s speed=1.22x    frame=17259 fps= 73 q=23.0 size= 3563520kB time=00:04:47.37 bitrate=101584.4kbits/s speed=1.22x    frame=17299 fps= 73 q=23.0 size= 3580160kB time=00:04:48.03 bitrate=101822.3kbits/s speed=1.22x    frame=17333 fps= 73 q=23.0 size= 3594240kB time=00:04:48.60 bitrate=102021.8kbits/s speed=1.22x    frame=17366 fps= 73 q=23.0 size= 3606528kB time=00:04:49.15 bitrate=102175.7kbits/s speed=1.22x    frame=17396 fps= 73 q=24.0 size= 3617792kB time=00:04:49.65 bitrate=102317.7kbits/s speed=1.22x    frame=17422 fps= 73 q=23.0 size= 3627008kB time=00:04:50.08 bitrate=102425.0kbits/s speed=1.22x    frame=17472 fps= 73 q=20.0 size= 3643136kB time=00:04:50.92 bitrate=102585.5kbits/s speed=1.22x    frame=17507 fps= 73 q=22.0 size= 3649536kB time=00:04:51.50 bitrate=102559.8kbits/s speed=1.22x    frame=17541 fps= 73 q=22.0 size= 3656448kB time=00:04:52.07 bitrate=102554.5kbits/s speed=1.22x    frame=17577 fps= 73 q=21.0 size= 3665408kB time=00:04:52.67 bitrate=102594.8kbits/s speed=1.22x    frame=17617 fps= 73 q=21.0 size= 3674880kB time=00:04:53.34 bitrate=102626.0kbits/s speed=1.22x    frame=17654 fps= 73 q=20.0 size= 3683072kB time=00:04:53.96 bitrate=102638.8kbits/s speed=1.22x    frame=17690 fps= 73 q=22.0 size= 3691520kB time=00:04:54.56 bitrate=102664.4kbits/s speed=1.22x    frame=17724 fps= 73 q=22.0 size= 3698432kB time=00:04:55.12 bitrate=102659.0kbits/s speed=1.22x    frame=17758 fps= 73 q=21.0 size= 3706368kB time=00:04:55.69 bitrate=102681.9kbits/s speed=1.22x    frame=17792 fps= 73 q=22.0 size= 3714048kB time=00:04:56.26 bitrate=102697.7kbits/s speed=1.22x    frame=17829 fps= 73 q=21.0 size= 3720960kB time=00:04:56.87 bitrate=102674.8kbits/s speed=1.22x    frame=17872 fps= 73 q=20.0 size= 3727872kB time=00:04:57.59 bitrate=102617.6kbits/s speed=1.22x    frame=17901 fps= 73 q=20.0 size= 3731712kB time=00:04:58.08 bitrate=102556.6kbits/s speed=1.22x    frame=17939 fps= 73 q=20.0 size= 3737344kB time=00:04:58.71 bitrate=102493.4kbits/s speed=1.22x    frame=17979 fps= 73 q=20.0 size= 3743232kB time=00:04:59.38 bitrate=102426.0kbits/s speed=1.22x    frame=18013 fps= 73 q=20.0 size= 3747328kB time=00:04:59.94 bitrate=102344.2kbits/s speed=1.22x    frame=18041 fps= 73 q=22.0 size= 3752192kB time=00:05:00.41 bitrate=102317.7kbits/s speed=1.22x    frame=18076 fps= 73 q=22.0 size= 3762688kB time=00:05:01.00 bitrate=102404.9kbits/s speed=1.22x    frame=18115 fps= 73 q=22.0 size= 3772672kB time=00:05:01.65 bitrate=102455.1kbits/s speed=1.22x    frame=18141 fps= 73 q=21.0 size= 3780352kB time=00:05:02.08 bitrate=102516.3kbits/s speed=1.22x    frame=18184 fps= 73 q=19.0 size= 3791104kB time=00:05:02.80 bitrate=102564.3kbits/s speed=1.22x    frame=18220 fps= 73 q=20.0 size= 3796736kB time=00:05:03.40 bitrate=102513.3kbits/s speed=1.22x    frame=18255 fps= 73 q=20.0 size= 3802368kB time=00:05:03.98 bitrate=102468.2kbits/s speed=1.22x    frame=18290 fps= 73 q=20.0 size= 3808768kB time=00:05:04.57 bitrate=102443.9kbits/s speed=1.22x    frame=18323 fps= 73 q=24.0 size= 3814144kB time=00:05:05.12 bitrate=102403.4kbits/s speed=1.22x    frame=18360 fps= 73 q=24.0 size= 3827968kB time=00:05:05.73 bitrate=102567.0kbits/s speed=1.22x    frame=18385 fps= 73 q=24.0 size= 3837696kB time=00:05:06.15 bitrate=102687.6kbits/s speed=1.22x    frame=18425 fps= 73 q=24.0 size= 3853568kB time=00:05:06.82 bitrate=102888.0kbits/s speed=1.22x    frame=18461 fps= 73 q=24.0 size= 3867136kB time=00:05:07.42 bitrate=103048.5kbits/s speed=1.22x    frame=18491 fps= 73 q=24.0 size= 3878144kB time=00:05:07.92 bitrate=103173.9kbits/s speed=1.22x    frame=18521 fps= 73 q=24.0 size= 3889664kB time=00:05:08.42 bitrate=103312.5kbits/s speed=1.22x    frame=18567 fps= 73 q=24.0 size= 3905536kB time=00:05:09.19 bitrate=103476.6kbits/s speed=1.22x    frame=18601 fps= 73 q=24.0 size= 3917056kB time=00:05:09.75 bitrate=103591.7kbits/s speed=1.22x    frame=18625 fps= 73 q=24.0 size= 3924992kB time=00:05:10.15 bitrate=103667.6kbits/s speed=1.22x    frame=18663 fps= 73 q=25.0 size= 3938304kB time=00:05:10.79 bitrate=103807.0kbits/s speed=1.22x    frame=18696 fps= 73 q=25.0 size= 3949312kB time=00:05:11.34 bitrate=103913.1kbits/s speed=1.22x    frame=18733 fps= 73 q=25.0 size= 3961344kB time=00:05:11.96 bitrate=104023.4kbits/s speed=1.22x    frame=18761 fps= 73 q=25.0 size= 3971328kB time=00:05:12.42 bitrate=104129.7kbits/s speed=1.22x    frame=18808 fps= 73 q=-1.0 Lsize= 3996527kB time=00:05:13.76 bitrate=104344.7kbits/s speed=1.22x    
video:3996416kB audio:0kB subtitle:0kB other streams:0kB global headers:0kB muxing overhead: 0.002782%
[libx264 @ 0x55abc09d62c0] frame I:157   Avg QP:14.90  size:1147786
[libx264 @ 0x55abc09d62c0] frame P:18651 Avg QP:17.90  size:209754
[libx264 @ 0x55abc09d62c0] mb I  I16..4: 100.0%  0.0%  0.0%
[libx264 @ 0x55abc09d62c0] mb P  I16..4:  5.3%  0.0%  0.0%  P16..4: 58.1%  0.0%  0.0%  0.0%  0.0%    skip:36.7%
[libx264 @ 0x55abc09d62c0] final ratefactor: 17.23
[libx264 @ 0x55abc09d62c0] coded y,uvDC,uvAC intra: 26.7% 52.5% 25.0% inter: 27.3% 34.8% 8.3%
[libx264 @ 0x55abc09d62c0] i16 v,h,dc,p: 35% 28% 13% 24%
[libx264 @ 0x55abc09d62c0] i8c dc,h,v,p: 40% 25% 19% 16%
[libx264 @ 0x55abc09d62c0] kb/s:104336.23
